<svg xmlns="http://www.w3.org/2000/svg" width="1920" height="1080" viewBox="0 0 1920 1080" role="img" aria-label=";èŒÌo">
  <defs>
    <linearGradient id="bg" x1="0%" y1="0%" x2="100%" y2="100%">
      <stop offset="0%" stop-color="#f0fdf4"/>
      <stop offset="50%" stop-color="#ecfdf5"/>
      <stop offset="100%" stop-color="#ccfbf1"/>
    </linearGradient>
  </defs>
  <rect width="1920" height="1080" fill="url(#bg)"/>
  <circle cx="300" cy="240" r="100" fill="#6ee7b7" opacity="0.25"/>
  <circle cx="1600" cy="800" r="140" fill="#34d399" opacity="0.18"/>
  <!-- "ÎaGa -->
  <g transform="translate(1280,300)" opacity="0.35">
    <rect x="0" y="0" width="320" height="200" rx="16" fill="#fff" stroke="#a7f3d0" stroke-width="2"/>
    <rect x="24" y="24" width="80" height="80" rx="12" fill="#059669"/>
    <rect x="120" y="32" width="160" height="14" rx="4" fill="#d1fae5"/>
    <rect x="120" y="58" width="120" height="10" rx="3" fill="#ecfdf5"/>
    <rect x="24" y="130" width="272" height="10" rx="3" fill="#ecfdf5"/>
    <rect x="24" y="152" width="200" height="10" rx="3" fill="#ecfdf5"/>
  </g>
  <g transform="translate(200,600)" opacity="0.22">
    <path d="M0 120 L100 20 L200 120 V200 H0 Z" fill="#10b981"/>
    <rect x="70" y="140" width="60" height="60" fill="#047857"/>
  </g>
</svg>
